RBDS09runT45_grf
version=1
nRows=27
nColumns=19
inDegrees=no
endheader
time	ground_force_r_vx	ground_force_r_vy	ground_force_r_vz	ground_force_r_px	ground_force_r_py	ground_force_r_pz	ground_force_r_mx	ground_force_r_my	ground_force_r_mz	ground_force_l_vx	ground_force_l_vy	ground_force_l_vz	ground_force_l_px	ground_force_l_py	ground_force_l_pz	ground_force_l_mx	ground_force_l_my	ground_force_l_mz
      7.49900000	    106.61633182	   1445.36344829	    -12.63284486	      2.21030140	      0.00000000	      1.02370586	      0.00000000	      9.55541087	      0.00000000	      0.00000000	      0.00000000	      0.00000000	      0.00000000	      0.00000000	      0.00000000	      0.00000000	      0.00000000	      0.00000000
      7.50000000	    113.26882302	   1426.46057068	    -13.01863832	      2.20604002	      0.00000000	      1.02390589	      0.00000000	      9.34776269	      0.00000000	      0.00000000	      0.00000000	      0.00000000	      0.00000000	      0.00000000	      0.00000000	      0.00000000	      0.00000000	      0.00000000
      7.50100000	    119.40921231	   1406.27905708	    -13.13925400	      2.20179366	      0.00000000	      1.02407115	      0.00000000	      9.17230201	      0.00000000	      0.00000000	      0.00000000	      0.00000000	      0.00000000	      0.00000000	      0.00000000	      0.00000000	      0.00000000	      0.00000000
      7.50200000	    125.54960160	   1386.09754348	    -13.25986969	      2.19754729	      0.00000000	      1.02423640	      0.00000000	      8.99684133	      0.00000000	      0.00000000	      0.00000000	      0.00000000	      0.00000000	      0.00000000	      0.00000000	      0.00000000	      0.00000000	      0.00000000
      7.50300000	    131.68999089	   1365.91602988	    -13.38048537	      2.19330092	      0.00000000	      1.02440165	      0.00000000	      8.82138064	      0.00000000	      0.00000000	      0.00000000	      0.00000000	      0.00000000	      0.00000000	      0.00000000	      0.00000000	      0.00000000	      0.00000000
      7.50400000	    137.41480882	   1344.96510512	    -13.34521988	      2.18907880	      0.00000000	      1.02454447	      0.00000000	      8.66838323	      0.00000000	      0.00000000	      0.00000000	      0.00000000	      0.00000000	      0.00000000	      0.00000000	      0.00000000	      0.00000000	      0.00000000
      7.50500000	    142.93184106	   1323.62947478	    -13.23201380	      2.18486880	      0.00000000	      1.02467608	      0.00000000	      8.52661745	      0.00000000	      0.00000000	      0.00000000	      0.00000000	      0.00000000	      0.00000000	      0.00000000	      0.00000000	      0.00000000	      0.00000000
      7.50600000	    148.44887330	   1302.29384444	    -13.11880773	      2.18065879	      0.00000000	      1.02480768	      0.00000000	      8.38485167	      0.00000000	      0.00000000	      0.00000000	      0.00000000	      0.00000000	      0.00000000	      0.00000000	      0.00000000	      0.00000000	      0.00000000
      7.50700000	    153.72653439	   1280.61969054	    -12.94002837	      2.17646812	      0.00000000	      1.02492875	      0.00000000	      8.25442196	      0.00000000	      0.00000000	      0.00000000	      0.00000000	      0.00000000	      0.00000000	      0.00000000	      0.00000000	      0.00000000	      0.00000000
      7.50800000	    158.52545316	   1258.26848952	    -12.63010244	      2.17231611	      0.00000000	      1.02502877	      0.00000000	      8.14666439	      0.00000000	      0.00000000	      0.00000000	      0.00000000	      0.00000000	      0.00000000	      0.00000000	      0.00000000	      0.00000000	      0.00000000
      7.50900000	    163.32437194	   1235.91728849	    -12.32017650	      2.16816410	      0.00000000	      1.02512878	      0.00000000	      8.03890683	      0.00000000	      0.00000000	      0.00000000	      0.00000000	      0.00000000	      0.00000000	      0.00000000	      0.00000000	      0.00000000	      0.00000000
      7.51000000	    168.12329071	   1213.56608747	    -12.01025057	      2.16401209	      0.00000000	      1.02522880	      0.00000000	      7.93114927	      0.00000000	      0.00000000	      0.00000000	      0.00000000	      0.00000000	      0.00000000	      0.00000000	      0.00000000	      0.00000000	      0.00000000
      7.51100000	    172.12891780	   1190.35391774	    -11.54406745	      2.15993966	      0.00000000	      1.02529999	      0.00000000	      7.85671931	      0.00000000	      0.00000000	      0.00000000	      0.00000000	      0.00000000	      0.00000000	      0.00000000	      0.00000000	      0.00000000	      0.00000000
      7.51200000	    176.13454489	   1167.14174802	    -11.07788433	      2.15586723	      0.00000000	      1.02537119	      0.00000000	      7.78228935	      0.00000000	      0.00000000	      0.00000000	      0.00000000	      0.00000000	      0.00000000	      0.00000000	      0.00000000	      0.00000000	      0.00000000
      7.51300000	    180.14017197	   1143.92957830	    -10.61170121	      2.15179480	      0.00000000	      1.02544238	      0.00000000	      7.70785939	      0.00000000	      0.00000000	      0.00000000	      0.00000000	      0.00000000	      0.00000000	      0.00000000	      0.00000000	      0.00000000	      0.00000000
      7.51400000	    183.58146560	   1120.25776341	    -10.06903780	      2.14778960	      0.00000000	      1.02549654	      0.00000000	      7.65466533	      0.00000000	      0.00000000	      0.00000000	      0.00000000	      0.00000000	      0.00000000	      0.00000000	      0.00000000	      0.00000000	      0.00000000
      7.51500000	    186.74059250	   1096.35612593	     -9.48813424	      2.14381800	      0.00000000	      1.02554219	      0.00000000	      7.61208923	      0.00000000	      0.00000000	      0.00000000	      0.00000000	      0.00000000	      0.00000000	      0.00000000	      0.00000000	      0.00000000	      0.00000000
      7.51600000	    189.89971939	   1072.45448845	     -8.90723068	      2.13984641	      0.00000000	      1.02558783	      0.00000000	      7.56951312	      0.00000000	      0.00000000	      0.00000000	      0.00000000	      0.00000000	      0.00000000	      0.00000000	      0.00000000	      0.00000000	      0.00000000
      7.51700000	    192.76680032	   1048.38569361	     -8.30159735	      2.13591528	      0.00000000	      1.02562614	      0.00000000	      7.53686164	      0.00000000	      0.00000000	      0.00000000	      0.00000000	      0.00000000	      0.00000000	      0.00000000	      0.00000000	      0.00000000	      0.00000000
      7.51800000	    195.04978931	   1023.98258404	     -7.64650448	      2.13206509	      0.00000000	      1.02564979	      0.00000000	      7.52405942	      0.00000000	      0.00000000	      0.00000000	      0.00000000	      0.00000000	      0.00000000	      0.00000000	      0.00000000	      0.00000000	      0.00000000
      7.51900000	    197.33277831	    999.57947447	     -6.99141161	      2.12821489	      0.00000000	      1.02567345	      0.00000000	      7.51125719	      0.00000000	      0.00000000	      0.00000000	      0.00000000	      0.00000000	      0.00000000	      0.00000000	      0.00000000	      0.00000000	      0.00000000
      7.52000000	    199.61576730	    975.17636489	     -6.33631875	      2.12436469	      0.00000000	      1.02569710	      0.00000000	      7.49845497	      0.00000000	      0.00000000	      0.00000000	      0.00000000	      0.00000000	      0.00000000	      0.00000000	      0.00000000	      0.00000000	      0.00000000
      7.52100000	    201.01729187	    950.47463745	     -5.64477777	      2.12065541	      0.00000000	      1.02570243	      0.00000000	      7.51290417	      0.00000000	      0.00000000	      0.00000000	      0.00000000	      0.00000000	      0.00000000	      0.00000000	      0.00000000	      0.00000000	      0.00000000
      7.52200000	    202.41881645	    925.77291000	     -4.95323680	      2.11694612	      0.00000000	      1.02570776	      0.00000000	      7.52735336	      0.00000000	      0.00000000	      0.00000000	      0.00000000	      0.00000000	      0.00000000	      0.00000000	      0.00000000	      0.00000000	      0.00000000
      7.52300000	    203.82034102	    901.07118256	     -4.26169582	      2.11323684	      0.00000000	      1.02571308	      0.00000000	      7.54180255	     -0.00000000	      0.00000000	      0.00000000	      0.00000000	      0.00000000	      0.00000000	      0.00000000	      0.00000000	      0.00000000	      0.00000000
      7.52400000	    204.64677704	    876.31366259	     -3.56820871	      2.10963358	      0.00000000	      1.02570861	      0.00000000	      7.57253339	     -0.00000000	      0.00000000	      0.00000000	      0.00000000	      0.00000000	      0.00000000	      0.00000000	      0.00000000	      0.00000000	      0.00000000
      7.52500000	    205.18566878	    851.52824636	     -2.87374854	      2.10608332	      0.00000000	      1.02569923	      0.00000000	      7.61140504	     -0.00000000	      0.00000000	      0.00000000	      0.00000000	      0.00000000	      0.00000000	      0.00000000	      0.00000000	      0.00000000	      0.00000000
